<mxfile host="app.diagrams.net" modified="2023-10-10T21:05:17.017Z" agent="Mozilla/5.0 (Macintosh; Intel Mac OS X 10_15_7) AppleWebKit/537.36 (KHTML, like Gecko) Chrome/117.0.0.0 Safari/537.36" etag="YZYDa23hlVzs4Z8xlxRg" version="22.0.4" type="github">
  <diagram name="Page-1" id="2YBvvXClWsGukQMizWep">
    <mxGraphModel dx="984" dy="547" grid="1" gridSize="10" guides="1" tooltips="1" connect="1" arrows="1" fold="1" page="1" pageScale="1" pageWidth="850" pageHeight="1100" math="0" shadow="0">
      <root>
        <mxCell id="0" />
        <mxCell id="1" parent="0" />
        <mxCell id="4ZZAhmFJeKcWC9fRS71v-1" value="System" style="rounded=0;whiteSpace=wrap;html=1;" parent="1" vertex="1">
          <mxGeometry x="620" y="60" width="120" height="60" as="geometry" />
        </mxCell>
        <mxCell id="4ZZAhmFJeKcWC9fRS71v-2" value="" style="endArrow=none;dashed=1;html=1;rounded=0;" parent="1" edge="1">
          <mxGeometry width="50" height="50" relative="1" as="geometry">
            <mxPoint x="194.5" y="555" as="sourcePoint" />
            <mxPoint x="194.5" y="115" as="targetPoint" />
          </mxGeometry>
        </mxCell>
        <mxCell id="Vhd3ZVmYL_rk4PXSH9ml-1" value="Player" style="shape=umlActor;verticalLabelPosition=bottom;verticalAlign=top;html=1;outlineConnect=0;" vertex="1" parent="1">
          <mxGeometry x="180" y="60" width="30" height="60" as="geometry" />
        </mxCell>
        <mxCell id="Vhd3ZVmYL_rk4PXSH9ml-2" value="Vincent - Move around" style="text;html=1;strokeColor=none;fillColor=none;align=center;verticalAlign=middle;whiteSpace=wrap;rounded=0;" vertex="1" parent="1">
          <mxGeometry x="300" y="75" width="240" height="30" as="geometry" />
        </mxCell>
        <mxCell id="Vhd3ZVmYL_rk4PXSH9ml-4" value="loop" style="shape=umlFrame;whiteSpace=wrap;html=1;pointerEvents=0;" vertex="1" parent="1">
          <mxGeometry x="35" y="150" width="765" height="370" as="geometry" />
        </mxCell>
        <mxCell id="Vhd3ZVmYL_rk4PXSH9ml-5" value="[while player has a movement key pressed down]" style="text;html=1;strokeColor=none;fillColor=none;align=center;verticalAlign=middle;whiteSpace=wrap;rounded=0;" vertex="1" parent="1">
          <mxGeometry x="50" y="200" width="100" height="30" as="geometry" />
        </mxCell>
        <mxCell id="Vhd3ZVmYL_rk4PXSH9ml-8" value="" style="endArrow=none;dashed=1;html=1;rounded=0;" edge="1" parent="1">
          <mxGeometry width="50" height="50" relative="1" as="geometry">
            <mxPoint x="679.5" y="560" as="sourcePoint" />
            <mxPoint x="679.5" y="120" as="targetPoint" />
          </mxGeometry>
        </mxCell>
        <mxCell id="Vhd3ZVmYL_rk4PXSH9ml-9" value="move player" style="endArrow=classic;html=1;rounded=0;" edge="1" parent="1">
          <mxGeometry width="50" height="50" relative="1" as="geometry">
            <mxPoint x="196" y="290" as="sourcePoint" />
            <mxPoint x="678" y="290" as="targetPoint" />
          </mxGeometry>
        </mxCell>
        <mxCell id="Vhd3ZVmYL_rk4PXSH9ml-10" value="show player movement" style="endArrow=classic;html=1;rounded=0;dashed=1;" edge="1" parent="1">
          <mxGeometry width="50" height="50" relative="1" as="geometry">
            <mxPoint x="680" y="320" as="sourcePoint" />
            <mxPoint x="200" y="320" as="targetPoint" />
          </mxGeometry>
        </mxCell>
        <mxCell id="Vhd3ZVmYL_rk4PXSH9ml-11" value="opt" style="shape=umlFrame;whiteSpace=wrap;html=1;pointerEvents=0;" vertex="1" parent="1">
          <mxGeometry x="125" y="240" width="595" height="240" as="geometry" />
        </mxCell>
        <mxCell id="Vhd3ZVmYL_rk4PXSH9ml-12" value="[if desired position is open]" style="text;html=1;strokeColor=none;fillColor=none;align=center;verticalAlign=middle;whiteSpace=wrap;rounded=0;" vertex="1" parent="1">
          <mxGeometry x="130" y="290" width="65" height="20" as="geometry" />
        </mxCell>
      </root>
    </mxGraphModel>
  </diagram>
</mxfile>
